<svg width="160" height="112" viewBox="0 0 160 112" fill="none" xmlns="http://www.w3.org/2000/svg">
<path d="M66.5169 13.6116C67.1693 14.1229 67.6439 14.6919 68.0578 15.4093C68.0578 15.5788 68.0578 15.7483 68.0578 15.923C68.312 15.7535 68.5663 15.584 68.8283 15.4093C69.6155 15.2693 70.3521 15.2709 71.1396 15.4093C71.9349 16.0354 72.3783 16.6253 72.9374 17.4639C73.1122 17.3315 73.287 17.1991 73.4671 17.0626C74.454 16.5797 74.9692 16.6639 76.0193 16.9503C76.8284 17.5252 77.0147 17.8397 77.2392 18.8122C77.2604 19.0453 77.2815 19.2784 77.3034 19.5185C77.7165 19.439 77.7165 19.439 78.138 19.358C79.1084 19.2609 79.3617 19.2386 80.1284 19.7753C80.3973 20.3311 80.3973 20.3311 80.5778 20.9631C80.6712 21.2779 80.6712 21.2779 80.7665 21.5991C80.8102 21.76 80.8539 21.9209 80.8989 22.0867C81.1266 22.1132 81.3544 22.1397 81.5891 22.167C82.4812 22.3521 83.0069 22.5563 83.7239 23.114C84.2607 24.0597 84.2875 24.8652 84.2376 25.939C84.5792 25.8516 84.5792 25.8516 84.9278 25.7625C85.9343 25.6675 86.2749 25.8451 87.0626 26.4527C87.4694 27.2663 87.3963 28.1326 87.3194 29.0209C87.1482 29.4489 86.977 29.877 86.8058 30.305C87.06 30.6864 87.06 30.6864 87.3194 31.0755C87.3397 31.6744 87.342 32.2744 87.3194 32.8732C92.2661 28.6633 95.8857 23.6039 98.6196 17.7207C99.6784 18.2098 100.52 18.8052 101.188 19.7753C101.188 20.8054 100.99 21.228 100.417 22.0867C100.442 23.2058 101.326 23.9099 102.055 24.671C102.182 24.8069 102.309 24.9428 102.44 25.0828C103.039 25.7217 103.65 26.3467 104.27 26.9663C104.778 26.2883 105.287 25.6103 105.811 24.9117C106.865 25.1753 107.093 25.3259 107.831 26.0537C108.022 26.2406 108.213 26.4275 108.41 26.6201C108.613 26.8234 108.816 27.0267 109.026 27.2362C109.236 27.4443 109.446 27.6524 109.662 27.8668C110.106 28.3074 110.548 28.7489 110.989 29.1914C111.668 29.8699 112.351 30.5427 113.035 31.2154C113.465 31.6436 113.894 32.0722 114.323 32.501C114.529 32.7028 114.735 32.9045 114.947 33.1124C115.227 33.3964 115.227 33.3964 115.513 33.6861C115.68 33.8519 115.846 34.0176 116.017 34.1884C116.34 34.671 116.34 34.671 116.289 35.2106C116.019 35.8514 115.642 36.3179 115.201 36.854C114.624 37.5576 114.148 38.2062 113.772 39.0369C113.982 39.2703 113.982 39.2703 114.196 39.5085C115.596 41.0634 116.995 42.6184 118.395 44.1734C119.743 43.1203 120.76 41.9828 121.734 40.5779C122.873 41.0974 123.63 41.8565 124.51 42.7288C124.667 42.8771 124.824 43.0254 124.985 43.1782C125.132 43.3232 125.279 43.4682 125.43 43.6176C125.632 43.8144 125.632 43.8144 125.839 44.0153C126.1 44.4302 126.1 44.4302 126.049 44.9471C125.709 45.7882 125.103 46.4213 124.51 47.0947C124.374 47.2514 124.238 47.408 124.097 47.5694C121.72 50.2654 119.191 52.765 116.34 54.9599C116.11 55.143 115.88 55.3261 115.643 55.5147C113.427 57.2384 111.058 58.6826 108.636 60.0963C108.474 60.1914 108.313 60.2865 108.147 60.3844C101.2 64.4417 92.2017 67.3966 84.0931 67.3034C83.8279 67.3011 83.5627 67.2988 83.2895 67.2964C82.996 67.2919 82.996 67.2919 82.6966 67.2874C82.6682 67.4456 82.6397 67.6038 82.6104 67.7669C82.3308 68.6646 81.6969 68.8986 80.8989 69.3419C73.6548 71.7628 64.3197 71.1353 56.8379 70.1766C56.5182 70.1364 56.1985 70.0961 55.8691 70.0546C53.9893 69.7802 52.2431 69.4502 50.8507 68.0578C50.7248 67.4822 50.7248 67.4822 50.6364 66.7504C50.6019 66.4735 50.5673 66.1967 50.5317 65.9114C50.496 65.6063 50.4602 65.3012 50.4234 64.9868C50.3644 64.5063 50.3644 64.5063 50.3042 64.0161C50.2185 63.3185 50.1343 62.6208 50.0511 61.9229C49.9194 60.8185 49.7846 59.7144 49.6493 58.6104C49.3866 56.4643 49.1274 54.3178 48.8684 52.1713C48.5391 49.4437 48.2081 46.7162 47.8745 43.9891C47.7405 42.8927 47.608 41.7961 47.4767 40.6994C47.4144 40.1803 47.3514 39.6614 47.2881 39.1425C47.2112 38.5112 47.1352 37.8798 47.0605 37.2482C46.8429 34.7817 46.8429 34.7817 45.8106 32.6004C45.3001 31.881 45.3342 31.4246 45.4575 30.5618C45.7117 30.2599 45.7117 30.2599 45.9711 29.9519C46.609 29.1147 46.524 28.7244 46.4747 27.7177C46.4904 26.944 46.7694 26.5254 47.2552 25.939C48.1318 25.2872 48.4466 25.1686 49.5666 25.1686C49.5825 24.8984 49.5984 24.6283 49.6148 24.3499C49.8597 23.2004 50.2165 22.8256 51.1075 22.0867C51.8669 21.707 52.5823 21.8144 53.4189 21.8299C53.404 21.6809 53.3891 21.5319 53.3738 21.3784C53.3093 20.2623 53.346 19.6498 53.9005 18.6517C54.6824 17.8294 55.6279 17.6896 56.6974 17.4238C57.3587 17.2403 57.3587 17.2403 57.7528 16.4366C57.8482 16.1824 57.9435 15.9281 58.0417 15.6662C58.716 14.917 59.0529 14.897 60.0803 14.8154C60.9456 14.8462 61.626 15.0185 62.4077 15.4093C62.466 15.2557 62.5242 15.1021 62.5843 14.9438C63.4314 13.532 64.9907 13.226 66.5169 13.6116ZM62.9695 19.0691C62.3866 19.471 62.3866 19.471 62.1509 20.0321C62.6276 19.9606 62.6276 19.9606 63.114 19.8877C64.511 19.7146 64.511 19.7146 65.2327 20.0321C65.3175 20.2016 65.4022 20.3711 65.4896 20.5458C65.4048 20.122 65.3201 19.6983 65.2327 19.2617C64.1127 18.7529 64.1127 18.7529 62.9695 19.0691ZM68.5714 20.8026C68.6986 20.7602 68.8257 20.7178 68.9567 20.6742C69.8899 20.4875 70.6995 20.4842 71.6533 20.5458C71.9075 20.9272 71.9075 20.9272 72.1669 21.3162C72.3364 21.3162 72.5059 21.3162 72.6806 21.3162C72.526 20.7973 72.3536 20.2835 72.1669 19.7753C70.6131 18.9984 69.5943 19.5627 68.5714 20.8026ZM64.7191 22.0867C64.7191 22.2562 64.7191 22.4257 64.7191 22.6004C64.874 22.5914 65.029 22.5825 65.1886 22.5733C66.8927 22.5155 66.8927 22.5155 67.6565 22.9856C67.7889 23.1127 67.9213 23.2398 68.0578 23.3708C68.2273 23.3708 68.3968 23.3708 68.5714 23.3708C68.3183 22.5194 68.1465 22.151 67.4157 21.6212C66.2911 21.087 65.7797 21.5333 64.7191 22.0867ZM59.5827 24.3981C59.3571 24.9337 59.3571 24.9337 59.3258 25.4254C59.5483 25.293 59.7708 25.1605 60 25.0241C60.9764 24.6082 61.401 24.6372 62.4077 24.9117C62.5772 24.9965 62.7467 25.0812 62.9213 25.1686C62.8504 24.6701 62.8504 24.6701 62.6645 24.1413C61.4479 23.3302 60.6922 23.5584 59.5827 24.3981ZM72.0546 24.8475C71.5851 25.3884 71.5851 25.3884 71.7175 26.0032C71.7811 26.1516 71.8446 26.2999 71.9101 26.4527C72.0796 26.1984 72.2491 25.9442 72.4238 25.6822C73.0357 25.4946 73.0357 25.4946 73.74 25.3772C73.9737 25.3365 74.2074 25.2958 74.4482 25.2538C74.7174 25.2116 74.7174 25.2116 74.992 25.1686C74.4508 24.5631 74.3046 24.4105 73.4671 24.2857C72.661 24.339 72.661 24.339 72.0546 24.8475ZM77.817 25.939C77.8286 26.5234 77.8286 26.5234 78.0738 26.9663C78.2433 26.7597 78.4128 26.5532 78.5875 26.3403C79.5839 25.4892 80.1284 25.4907 81.4125 25.4254C80.9403 24.7957 80.6927 24.6637 79.9037 24.5265C78.8333 24.6978 78.4594 25.0825 77.817 25.939ZM53.1621 25.6822C52.5069 25.7182 51.8681 25.681 51.2129 25.6501C50.5257 25.6329 50.5257 25.6329 49.8234 26.1959C49.8234 26.3654 49.8234 26.5349 49.8234 26.7095C51.2218 26.5824 51.2218 26.5824 52.6485 26.4527C52.7332 26.8764 52.818 27.3002 52.9053 27.7368C53.4436 27.2736 53.4436 27.2736 53.5955 26.7095C54.1201 25.9102 54.8326 25.8817 55.7303 25.6822C55.7303 25.5127 55.7303 25.3432 55.7303 25.1686C54.2956 25.0134 54.2956 25.0134 53.1621 25.6822ZM96.1571 27.0704C95.6437 27.6118 95.1314 28.154 94.6228 28.6999C94.4435 28.8872 94.2643 29.0746 94.0796 29.2677C93.9089 29.4498 93.7382 29.6319 93.5624 29.8195C93.4056 29.9862 93.2488 30.153 93.0873 30.3248C92.6797 30.8622 92.5011 31.1727 92.4559 31.8459C92.7017 32.3858 92.7017 32.3858 93.1049 32.9013C93.3147 33.1918 93.3147 33.1918 93.5288 33.4882C93.6779 33.6878 93.8271 33.8875 93.9807 34.0931C94.1289 34.2967 94.277 34.5003 94.4297 34.7101C94.7962 35.2129 95.1656 35.7133 95.5377 36.2119C96.9369 35.2272 98.1273 34.1844 99.2616 32.9053C99.3994 32.753 99.5371 32.6008 99.679 32.4439C100.012 32.0748 100.343 31.7038 100.674 31.3323C100.155 30.213 99.42 29.3718 98.6196 28.443C98.4792 28.2762 98.3388 28.1093 98.1942 27.9374C98.0591 27.7798 97.9241 27.6223 97.7849 27.4599C97.6618 27.3158 97.5386 27.1717 97.4117 27.0233C96.8971 26.5385 96.6714 26.6154 96.1571 27.0704ZM67.0305 27.48C66.7762 27.8613 66.7762 27.8613 66.5169 28.2504C65.8431 28.5034 65.1698 28.6157 64.4623 28.7641C64.4093 28.5999 64.3563 28.4357 64.3018 28.2665C63.9785 27.6565 63.9785 27.6565 63.1942 27.5281C62.3972 27.4302 62.3972 27.4302 61.6372 27.7368C61.6372 27.9063 61.6372 28.0758 61.6372 28.2504C62.9085 28.5047 62.9085 28.5047 64.2055 28.7641C64.1207 29.1878 64.036 29.6116 63.9486 30.0482C64.1181 29.9634 64.2876 29.8787 64.4623 29.7914C65.5505 29.6821 66.4734 29.6156 67.4318 30.1766C67.5536 30.3037 67.6754 30.4308 67.801 30.5618C67.6667 29.8523 67.5162 29.194 67.2873 28.5073C68.1882 28.0954 68.8651 27.937 69.8555 27.9936C69.7708 27.7394 69.686 27.4851 69.5987 27.2231C68.5627 26.9877 67.9214 26.8436 67.0305 27.48ZM75.008 29.9198C74.918 30.0469 74.8279 30.174 74.7352 30.305C74.8199 30.4745 74.9047 30.644 74.992 30.8187C75.1615 30.7339 75.331 30.6491 75.5056 30.5618C77.3815 30.5023 77.3815 30.5023 78.3307 30.8187C77.9945 30.0169 77.9945 30.0169 77.3034 29.5345C76.071 29.4045 76.071 29.4045 75.008 29.9198ZM52.9213 30.1445C52.6016 30.5504 52.6016 30.5504 52.6485 31.0755C52.8034 31.0354 52.9583 30.9954 53.118 30.9541C53.4259 30.8791 53.4259 30.8791 53.74 30.8026C53.9426 30.7519 54.1452 30.7013 54.3539 30.6491C54.9866 30.558 55.3852 30.6212 55.9872 30.8187C55.9024 30.5644 55.8177 30.3101 55.7303 30.0482C54.8182 29.5921 53.7641 29.5464 52.9213 30.1445ZM86.7063 36.159C85.8377 37.3471 85.8917 38.8643 85.7945 40.289C85.7659 40.6127 85.7373 40.9365 85.7078 41.2701C85.6384 42.0663 85.5766 42.8624 85.5217 43.6597C86.9571 42.9801 88.2262 42.2262 89.5024 41.2841C89.6646 41.1663 89.8268 41.0484 89.994 40.927C90.3876 40.6408 90.7798 40.3527 91.1717 40.0642C90.9283 38.9156 90.3766 38.0422 89.7753 37.0466C89.6705 36.8675 89.5657 36.6884 89.4578 36.5038C89.1883 36.0546 88.8975 35.6183 88.6035 35.1846C87.7687 35.1846 87.3172 35.6202 86.7063 36.159ZM109.567 42.9535C109.429 43.1018 109.291 43.2501 109.149 43.4029C108.042 44.5472 106.81 45.5113 105.554 46.4848C105.919 47.5698 106.45 48.2981 107.191 49.1654C107.997 50.1259 108.744 51.0706 109.406 52.1349C110.374 51.9813 110.922 51.5492 111.669 50.931C111.893 50.7473 112.116 50.5635 112.347 50.3742C113.169 49.6825 113.988 48.9878 114.799 48.2825C114.666 47.2052 114.067 46.6602 113.339 45.8909C112.561 45.0612 111.798 44.233 111.075 43.3548C110.758 42.9972 110.758 42.9972 110.433 42.6325C109.904 42.5749 109.904 42.5749 109.567 42.9535ZM101.188 49.8235C100.605 50.1592 100.057 50.506 99.5024 50.8829C99.1781 51.0978 98.8534 51.3121 98.5283 51.5259C98.3693 51.6306 98.2102 51.7352 98.0464 51.8431C97.1522 52.4177 96.2209 52.9241 95.2809 53.419C95.5578 53.9868 95.8362 54.5538 96.1156 55.1204C96.1927 55.279 96.2698 55.4376 96.3493 55.601C96.8656 56.6445 97.4411 57.5993 98.1059 58.5554C99.7446 58.0637 101.225 57.426 102.729 56.6132C102.924 56.5107 103.12 56.4083 103.322 56.3027C104.358 55.8147 104.358 55.8147 105.04 54.9599C104.496 54.1507 103.95 53.3433 103.403 52.5361C103.248 52.3056 103.093 52.075 102.933 51.8374C102.784 51.6181 102.635 51.3988 102.482 51.1728C102.345 50.9697 102.208 50.7666 102.066 50.5574C101.733 50.049 101.733 50.049 101.188 49.8235ZM89.7532 55.9611C89.4698 56.0631 89.1864 56.165 88.8945 56.2701C88.5972 56.378 88.2999 56.4859 87.9936 56.5971C87.5506 56.7561 87.5506 56.7561 87.0987 56.9182C85.3779 57.5301 85.3779 57.5301 83.7239 58.2986C83.5705 59.794 84.1019 60.8465 84.7512 62.1509C86.6815 61.9875 88.5063 61.5871 90.3852 61.1236C90.6767 61.0534 90.9682 60.9833 91.2686 60.9109C92.6682 60.6051 92.6682 60.6051 93.9968 60.0963C93.8529 58.9212 93.3486 58.0467 92.7287 57.0626C92.6362 56.9092 92.5437 56.7557 92.4483 56.5976C92.2095 56.2129 91.949 55.8418 91.6854 55.4735C90.9727 55.4735 90.4241 55.7195 89.7532 55.9611Z" fill="#F7D137"/>
<path d="M98.6196 17.7207C99.6784 18.2097 100.52 18.8052 101.188 19.7753C101.188 20.8054 100.99 21.2279 100.417 22.0867C100.442 23.2058 101.326 23.9099 102.055 24.6709C102.182 24.8068 102.309 24.9427 102.44 25.0828C103.039 25.7216 103.65 26.3467 104.27 26.9663C104.778 26.2883 105.287 25.6103 105.811 24.9117C106.865 25.1753 107.094 25.3258 107.831 26.0537C108.022 26.2406 108.213 26.4275 108.41 26.6201C108.613 26.8234 108.816 27.0267 109.026 27.2362C109.236 27.4443 109.446 27.6524 109.662 27.8668C110.106 28.3073 110.548 28.7489 110.989 29.1913C111.668 29.8699 112.351 30.5427 113.035 31.2154C113.465 31.6436 113.894 32.0721 114.323 32.501C114.529 32.7027 114.735 32.9045 114.947 33.1124C115.134 33.3017 115.321 33.491 115.513 33.6861C115.68 33.8519 115.846 34.0176 116.017 34.1884C116.34 34.6709 116.34 34.6709 116.289 35.2105C116.019 35.8514 115.642 36.3179 115.201 36.8539C114.624 37.5576 114.148 38.2061 113.772 39.0369C113.912 39.1925 114.052 39.3481 114.196 39.5084C115.596 41.0634 116.995 42.6184 118.395 44.1734C119.743 43.1203 120.76 41.9828 121.734 40.5778C122.873 41.0974 123.63 41.8565 124.51 42.7287C124.667 42.877 124.824 43.0254 124.985 43.1782C125.132 43.3232 125.279 43.4682 125.43 43.6176C125.632 43.8144 125.632 43.8144 125.839 44.0152C126.1 44.4302 126.1 44.4302 126.049 44.9471C125.709 45.7882 125.103 46.4213 124.51 47.0947C124.306 47.3297 124.306 47.3297 124.097 47.5694C121.72 50.2654 119.191 52.765 116.34 54.9599C116.11 55.1429 115.88 55.326 115.643 55.5146C113.427 57.2384 111.058 58.6826 108.636 60.0963C108.475 60.1914 108.313 60.2864 108.147 60.3844C101.2 64.4416 92.2018 67.3966 84.0931 67.3034C83.8279 67.3011 83.5628 67.2987 83.2896 67.2963C82.9961 67.2919 82.9961 67.2919 82.6967 67.2873C82.8248 64.6905 83.0536 62.1522 83.4671 59.5827C84.0537 60.1484 84.4417 60.6186 84.7512 61.3804C84.7512 61.6347 84.7512 61.8889 84.7512 62.1509C84.9492 62.1069 85.1471 62.0629 85.3511 62.0176C89.674 61.0569 89.674 61.0569 93.9968 60.0963C93.7567 59.6091 93.5158 59.1223 93.2745 58.6356C93.1404 58.3645 93.0063 58.0934 92.8682 57.814C92.4999 57.0998 92.1076 56.4137 91.6854 55.7303C89.8634 56.2645 88.0595 56.8425 86.2601 57.4478C86.0144 57.5301 85.7688 57.6124 85.5157 57.6971C84.9183 57.8972 84.3211 58.0977 83.7239 58.2986C83.9128 56.0528 84.1562 53.8142 84.4108 51.5752C84.4782 50.9803 84.5443 50.3853 84.6103 49.7903C84.7153 48.8534 84.8276 47.9177 84.9461 46.9824C85.0028 46.5266 85.0541 46.0702 85.1049 45.6138C85.3471 43.8394 85.3471 43.8394 86.1738 42.9886C86.5661 42.7725 86.5661 42.7725 86.9663 42.5522C87.2418 42.3916 87.5172 42.231 87.801 42.0656C88.0658 41.9137 88.3307 41.7617 88.6036 41.6051C89.1695 41.1922 89.7182 40.7643 90.2669 40.3291C90.6581 40.0642 90.6581 40.0642 91.1718 40.0642C90.168 38.1516 90.168 38.1516 89.0209 36.3242C88.6036 35.6982 88.6036 35.6982 88.6036 35.1846C87.9255 35.6083 87.2475 36.0321 86.549 36.4687C86.4847 36.0629 86.4271 35.656 86.3724 35.2488C86.3396 35.0223 86.3069 34.7959 86.2731 34.5626C86.2972 33.7264 86.4798 33.4647 87.0626 32.8732C87.4893 32.6142 87.9175 32.3576 88.3467 32.1027C92.8055 28.1358 96.116 23.1081 98.6196 17.7207ZM96.1572 27.0704C95.6437 27.6117 95.1314 28.1539 94.6228 28.6998C94.4435 28.8872 94.2643 29.0746 94.0796 29.2677C93.9089 29.4497 93.7383 29.6318 93.5624 29.8194C93.4056 29.9862 93.2489 30.153 93.0873 30.3248C92.6797 30.8622 92.5011 31.1727 92.4559 31.8459C92.7018 32.3858 92.7018 32.3858 93.105 32.9013C93.3148 33.1918 93.3148 33.1918 93.5288 33.4882C93.678 33.6878 93.8271 33.8874 93.9808 34.0931C94.1289 34.2967 94.2771 34.5003 94.4297 34.7101C94.7962 35.2129 95.1656 35.7133 95.5377 36.2119C96.9369 35.2271 98.1273 34.1843 99.2617 32.9053C99.3994 32.753 99.5371 32.6007 99.679 32.4438C100.012 32.0748 100.344 31.7037 100.674 31.3323C100.155 30.2129 99.42 29.3717 98.6196 28.443C98.4792 28.2762 98.3389 28.1093 98.1942 27.9374C98.0592 27.7798 97.9241 27.6222 97.7849 27.4599C97.6618 27.3158 97.5386 27.1717 97.4117 27.0232C96.8971 26.5384 96.6714 26.6153 96.1572 27.0704ZM109.567 42.9534C109.429 43.1018 109.291 43.2501 109.149 43.4029C108.042 44.5471 106.81 45.5113 105.554 46.4847C105.919 47.5697 106.45 48.298 107.191 49.1653C107.997 50.1259 108.745 51.0705 109.406 52.1348C110.374 51.9812 110.922 51.5491 111.669 50.931C111.893 50.7472 112.116 50.5635 112.347 50.3742C113.169 49.6825 113.988 48.9878 114.799 48.2825C114.666 47.2052 114.067 46.6602 113.339 45.8908C112.561 45.0611 111.798 44.2329 111.075 43.3547C110.758 42.9972 110.758 42.9972 110.433 42.6324C109.904 42.5748 109.904 42.5748 109.567 42.9534ZM101.188 49.8234C100.605 50.1592 100.058 50.506 99.5024 50.8828C99.1781 51.0977 98.8534 51.3121 98.5283 51.5259C98.3693 51.6305 98.2103 51.7352 98.0464 51.843C97.1523 52.4176 96.2209 52.9241 95.2809 53.4189C95.5578 53.9868 95.8363 54.5538 96.1156 55.1204C96.1927 55.279 96.2699 55.4375 96.3493 55.6009C96.8656 56.6445 97.4411 57.5993 98.106 58.5554C99.7446 58.0636 101.225 57.426 102.729 56.6132C102.924 56.5107 103.12 56.4082 103.322 56.3027C104.358 55.8147 104.358 55.8147 105.04 54.9599C104.496 54.1507 103.95 53.3432 103.403 52.5361C103.248 52.3055 103.093 52.0749 102.933 51.8374C102.784 51.6181 102.635 51.3987 102.482 51.1728C102.345 50.9697 102.208 50.7666 102.066 50.5573C101.733 50.049 101.733 50.049 101.188 49.8234Z" fill="#C6ACC0"/>
<path d="M60.3531 36.7255C61.2006 36.7255 62.0482 36.7255 62.9213 36.7255C62.9213 38.5052 62.9213 40.285 62.9213 42.1187C63.5994 41.9492 64.2774 41.7797 64.9759 41.6051C65.6449 41.5427 65.6449 41.5427 66.2169 41.5459C66.4269 41.5464 66.637 41.5469 66.8534 41.5474C67.1715 41.5521 67.1715 41.5521 67.496 41.5569C67.713 41.5571 67.93 41.5573 68.1536 41.5574C69.0606 41.5639 69.7578 41.5725 70.626 41.8619C70.626 40.1669 70.626 38.4719 70.626 36.7255C71.5583 36.7255 72.4905 36.7255 73.451 36.7255C73.4457 37.1896 73.4404 37.6538 73.435 38.132C73.4398 38.7439 73.4452 39.3559 73.451 39.9678C73.4436 40.4262 73.4436 40.4262 73.436 40.8938C73.4216 42.5313 73.4216 42.5313 74.1485 43.9309C74.6695 44.3178 75.1927 44.6346 75.7624 44.9438C77.7002 46.5818 78.9401 48.6684 79.1874 51.2309C79.2241 54.7164 78.3863 57.2305 76.0193 59.8394C73.9089 61.6372 73.9089 61.6372 72.6806 61.6372C72.6819 61.7817 72.6833 61.9263 72.6846 62.0752C72.6901 62.7532 72.6934 63.4311 72.6966 64.1091C72.6988 64.3362 72.7009 64.5633 72.7031 64.7973C72.7101 66.7489 72.5819 68.6813 72.4238 70.6259C70.8557 70.6323 69.2877 70.6369 67.7196 70.6401C67.1858 70.6413 66.6519 70.6431 66.118 70.6453C65.3524 70.6484 64.5868 70.6499 63.8212 70.651C63.4609 70.653 63.4609 70.653 63.0932 70.655C62.8722 70.6551 62.6511 70.6551 62.4233 70.6551C62.2277 70.6557 62.0321 70.6562 61.8305 70.6568C61.3804 70.6259 61.3804 70.6259 61.1236 70.3691C61.1009 69.7403 61.094 69.1189 61.0985 68.4901C61.0989 68.3024 61.0992 68.1146 61.0996 67.9212C61.1011 67.3193 61.1043 66.7174 61.1075 66.1155C61.1088 65.7084 61.11 65.3012 61.1111 64.8941C61.1139 63.8941 61.1183 62.894 61.1236 61.894C60.9223 61.8576 60.7209 61.8212 60.5135 61.7837C58.6273 61.3737 57.082 59.5442 55.9872 58.0417C55.0722 56.557 54.495 55.1788 54.4462 53.4189C54.4224 53.033 54.4224 53.033 54.3981 52.6394C54.2874 49.6833 55.079 47.778 56.9723 45.5266C57.8899 44.5643 58.904 43.7422 60.0963 43.146C60.1811 41.0272 60.2658 38.9084 60.3531 36.7255Z" fill="#FCF7F7"/>
<path d="M67.1268 44.3499C67.3827 44.3524 67.6386 44.3549 67.9023 44.3574C69.7683 44.3865 69.7683 44.3865 70.3692 44.687C70.3692 44.8565 70.3692 45.026 70.3692 45.2006C70.8777 45.2854 71.3862 45.3701 71.9101 45.4575C71.9101 45.627 71.9101 45.7965 71.9101 45.9711C72.1723 46.0426 72.1723 46.0426 72.4398 46.1156C73.7992 46.7808 74.7119 47.8063 75.4735 49.1011C76.268 51.7935 76.1246 54.0462 74.8315 56.5329C73.3449 58.3325 71.6867 59.8882 69.3419 60.3531C66.2692 60.6444 63.2618 60.6205 60.6742 58.7801C58.8919 57.288 57.6754 55.4093 57.4418 53.0678C57.4212 51.218 57.4532 49.8057 58.5554 48.2825C58.6673 48.1219 58.7792 47.9614 58.8945 47.7959C59.814 46.6025 60.7942 46.0536 62.1509 45.4575C62.2899 45.3734 62.4289 45.2894 62.5721 45.2028C64.0879 44.3265 65.4031 44.2985 67.1268 44.3499Z" fill="#C9B2C4"/>
<path d="M86.549 34.1573C86.6366 36.3975 86.365 38.5856 86.0835 40.8026C86.036 41.1864 85.9885 41.5702 85.941 41.954C85.7009 43.8808 85.4419 45.8031 85.1365 47.7208C84.7659 50.0556 84.5101 52.4018 84.2536 54.7513C84.2101 55.1483 84.1664 55.5453 84.1228 55.9423C83.9444 57.5672 83.7662 59.1922 83.5903 60.8174C83.4827 61.8079 83.3715 62.7979 83.2579 63.7877C83.2157 64.1603 83.1748 64.5331 83.1351 64.906C83.08 65.4223 83.0204 65.938 82.9605 66.4537C82.928 66.7459 82.8956 67.0381 82.8621 67.3391C82.6863 68.1029 82.5418 68.3635 81.9262 68.8283C79.1859 70.3352 75.4943 70.4293 72.4238 70.3692C72.4084 69.4485 72.4111 68.5288 72.4218 67.608C72.4232 67.1933 72.4192 66.7785 72.4118 66.3638C72.3996 65.644 72.4028 64.9254 72.4077 64.2055C72.4006 63.9724 72.3935 63.7392 72.3861 63.4991C72.399 62.8087 72.4356 62.2839 72.6806 61.6373C73.3831 61.0477 74.158 60.7209 74.992 60.3532C76.8057 59.0816 78.1205 56.9792 78.732 54.8506C79.2384 51.8706 78.8218 49.5359 77.3516 46.9503C76.4449 45.7846 75.5425 44.6688 74.1704 44.0741C73.2952 43.2575 73.3352 43.0128 73.2916 41.851C73.2994 41.2392 73.3154 40.6275 73.3387 40.0161C73.3435 39.7044 73.3483 39.3927 73.3533 39.0716C73.4008 36.7758 73.4008 36.7758 73.7079 36.4687C74.3723 36.4201 75.033 36.3843 75.6983 36.3564C77.6341 36.2614 79.5021 36.0303 81.4126 35.6983C81.2368 38.9647 80.8874 42.2068 80.5297 45.4575C80.1617 48.8088 79.8174 52.1589 79.5345 55.5185C79.3894 57.2223 79.2056 58.9158 78.9727 60.61C78.5799 63.5992 78.3121 66.5937 78.0739 69.5988C79.3451 69.3445 79.3451 69.3445 80.6421 69.0851C80.6678 68.8288 80.6936 68.5724 80.7201 68.3083C81.1805 63.7326 81.6495 59.1586 82.183 54.5907C82.6415 50.663 83.0431 46.7306 83.4255 42.7948C83.465 42.3948 83.5056 41.9949 83.5473 41.5951C83.6541 40.5679 83.743 39.5434 83.805 38.5124C83.8207 38.3018 83.8364 38.0911 83.8525 37.8741C83.8823 37.4735 83.9057 37.0724 83.9215 36.671C83.984 35.9153 84.0566 35.3442 84.6417 34.8283C85.2657 34.4585 85.8115 34.1573 86.549 34.1573Z" fill="#C02424"/>
<path d="M52.3916 35.9551C54.3569 36.0847 56.3141 36.2217 58.2664 36.4848C58.536 36.5198 58.536 36.5198 58.8111 36.5555C59.2396 36.6113 59.668 36.6683 60.0963 36.7255C60.1636 37.806 60.2045 38.886 60.2407 39.9679C60.2601 40.2735 60.2795 40.5791 60.2994 40.8939C60.3556 43.1277 60.3556 43.1277 59.6104 43.9186C59.0171 44.3013 58.4122 44.6211 57.7849 44.9438C55.8281 46.8483 54.665 48.9909 54.6067 51.7336C54.6284 52.2959 54.6603 52.8579 54.703 53.419C54.7212 53.6636 54.7394 53.9083 54.7582 54.1603C55.108 56.9161 56.6694 58.9033 58.7078 60.6983C59.4794 61.2592 59.4794 61.2592 61.1235 61.8941C61.1235 64.6909 61.1235 67.4877 61.1235 70.3692C60.4455 70.3321 59.7675 70.295 59.069 70.2568C58.8597 70.2458 58.6505 70.2347 58.4349 70.2233C57.1814 70.152 55.9473 70.0238 54.703 69.8556C55.042 69.7708 55.381 69.6861 55.7303 69.5987C55.6701 69.3912 55.6701 69.3912 55.6088 69.1795C55.4506 68.4686 55.4048 67.7879 55.3631 67.0606C55.3442 66.7603 55.3254 66.4601 55.3059 66.1507C55.2687 65.5315 55.2325 64.9121 55.1976 64.2928C55.0866 62.56 54.8929 60.872 54.5906 59.1643C54.1358 56.5927 53.8845 54.0117 53.6436 51.4125C53.5787 50.724 53.5133 50.0355 53.4472 49.3471C53.4067 48.9241 53.367 48.5011 53.328 48.0779C53.2566 47.3236 53.1821 46.5814 53.0283 45.8388C52.8504 44.9164 52.8152 43.9891 52.7678 43.0528C52.7568 42.8494 52.7457 42.646 52.7344 42.4364C52.6995 41.7902 52.6659 41.1439 52.6324 40.4976C52.6089 40.058 52.5853 39.6185 52.5616 39.1789C52.504 38.1043 52.4475 37.0297 52.3916 35.9551Z" fill="#C02221"/>
<path d="M84.2375 35.1846C84.308 37.3074 84.1169 39.3723 83.8573 41.4761C83.7353 42.4676 83.6193 43.4599 83.5032 44.4522C83.4788 44.6601 83.4544 44.8679 83.4292 45.0821C83.1578 47.4142 82.9262 49.7501 82.6966 52.0867C82.6543 52.5144 82.612 52.9422 82.5696 53.3699C82.5057 54.0152 82.4417 54.6604 82.3779 55.3056C82.1562 57.5444 81.9333 59.783 81.7031 62.021C81.6597 62.4448 81.6169 62.8686 81.5746 63.2926C81.516 63.8806 81.4554 64.4684 81.3944 65.0562C81.3606 65.3889 81.3268 65.7216 81.292 66.0644C81.1455 67.1027 80.9129 68.0729 80.642 69.085C79.3708 69.3393 79.3708 69.3393 78.0738 69.5987C78.0342 67.5012 78.1625 65.4572 78.3748 63.3706C78.4265 62.8615 78.4759 62.3522 78.5253 61.8429C78.6903 60.1779 78.8783 58.5195 79.1061 56.8619C79.3591 55.0117 79.5338 53.1603 79.695 51.3001C80.1593 46.0877 80.7911 40.8938 81.4125 35.6982C83.3708 35.1846 83.3708 35.1846 84.2375 35.1846Z" fill="#FCF7F6"/>
<path d="M49.5667 35.4414C50.4142 35.5262 51.2617 35.6109 52.1349 35.6982C52.5423 37.7405 52.7721 39.7371 52.9053 41.8138C53.0375 43.8509 53.2451 45.8513 53.5475 47.8704C53.7704 49.4788 53.9015 51.0956 54.045 52.7127C54.2384 54.8405 54.4388 56.9538 54.8475 59.053C55.5141 62.5062 55.5506 66.0927 55.7304 69.5987C55.3613 69.6126 54.9921 69.6226 54.6228 69.6308C54.4172 69.6368 54.2117 69.6427 53.9998 69.6489C53.419 69.5987 53.419 69.5987 52.6485 69.0851C52.5133 68.4707 52.4318 67.9103 52.3756 67.2873C52.3458 67.0031 52.3458 67.0031 52.3154 66.7132C52.1098 64.6699 51.9779 62.6198 51.8318 60.5715C51.7022 58.8408 51.5094 57.1388 51.236 55.4254C50.8104 52.7484 50.6524 50.0597 50.5031 47.3563C50.4848 47.029 50.4664 46.7016 50.4475 46.3644C50.4322 46.0719 50.4169 45.7794 50.4012 45.478C50.3545 44.7099 50.3545 44.7099 50.2104 44.0568C50.0433 43.217 49.9956 42.3904 49.9429 41.5359C49.9318 41.361 49.9208 41.1861 49.9094 41.0059C49.8746 40.4513 49.841 39.8966 49.8074 39.3419C49.7839 38.9642 49.7604 38.5865 49.7367 38.2088C49.6791 37.2864 49.6226 36.3639 49.5667 35.4414Z" fill="#FBF3F3"/>
<path d="M27.9935 79.6147C29.0105 79.6147 30.0276 79.6147 31.0754 79.6147C31.7531 80.3227 32.0352 80.6953 32.4237 81.5409C32.52 81.7246 32.6164 81.9083 32.7156 82.0976C32.9502 82.5487 33.17 83.0072 33.3868 83.467C34.1076 82.6195 34.5914 81.824 35.0561 80.8186C35.4253 80.179 35.4253 80.179 35.955 79.6147C36.7169 79.4971 36.7169 79.4971 37.5521 79.5395C37.969 79.5558 37.969 79.5558 38.3943 79.5724C38.6064 79.5863 38.8184 79.6003 39.0369 79.6147C39.0432 81.1096 39.0479 82.6045 39.051 84.0994C39.0523 84.6083 39.054 85.1173 39.0562 85.6263C39.0593 86.3562 39.0608 87.086 39.0619 87.8159C39.0633 88.0449 39.0646 88.2739 39.066 88.5099C39.066 89.0548 39.0528 89.5997 39.0369 90.1444C38.78 90.4012 38.78 90.4012 38.2022 90.4353C37.9691 90.4347 37.7361 90.434 37.4959 90.4333C37.1463 90.4343 37.1463 90.4343 36.7897 90.4353C36.2118 90.4012 36.2118 90.4012 35.955 90.1444C35.8942 89.4529 35.8466 88.7666 35.8105 88.0738C35.7995 87.8789 35.7884 87.6841 35.7769 87.4834C35.7496 87.0007 35.7238 86.518 35.6982 86.0352C35.5803 86.2206 35.4625 86.406 35.341 86.597C35.1835 86.8354 35.0259 87.0738 34.8635 87.3194C34.7086 87.5577 34.5536 87.7961 34.394 88.0417C34.2311 88.2271 34.0682 88.4125 33.9004 88.6035C33.5614 88.6035 33.2224 88.6035 32.8731 88.6035C32.4357 88.0417 32.4357 88.0417 32.0385 87.3194C31.9047 87.081 31.771 86.8426 31.6332 86.597C31.5339 86.4117 31.4345 86.2263 31.3322 86.0352C31.3167 86.3074 31.3011 86.5795 31.2851 86.8599C31.2634 87.2164 31.2416 87.5728 31.2199 87.9293C31.2098 88.1087 31.1997 88.2882 31.1893 88.473C31.1045 89.8294 31.1045 89.8294 30.8186 90.4012C29.9711 90.4012 29.1235 90.4012 28.2504 90.4012C28.1232 85.0619 28.1232 85.0619 27.9935 79.6147Z" fill="#F7D236"/>
<path d="M109.406 79.6148C112.088 79.3035 112.088 79.3035 112.983 80C113.369 80.5391 113.672 81.0749 113.965 81.6693C114.128 81.9633 114.128 81.9633 114.294 82.2632C114.558 82.7445 114.809 83.2336 115.056 83.7239C115.141 82.3679 115.226 81.0119 115.313 79.6148C117.495 79.5897 117.495 79.5897 118.138 79.6148C118.625 80.1018 118.428 80.8125 118.431 81.4604C118.43 81.6829 118.43 81.9055 118.429 82.1348C118.429 82.3619 118.43 82.5889 118.43 82.8228C118.43 83.3039 118.429 83.7849 118.428 84.2659C118.427 85.0049 118.428 85.7438 118.43 86.4827C118.43 86.9489 118.43 87.4151 118.429 87.8812C118.43 88.1038 118.43 88.3264 118.431 88.5557C118.424 90.1149 118.424 90.1149 118.138 90.4013C117.322 90.6028 116.64 90.6262 115.827 90.4013C115.06 89.6449 114.561 88.7643 114.029 87.8331C113.779 87.4364 113.527 87.0404 113.275 86.6453C113.1 86.3592 112.925 86.0732 112.745 85.7785C112.729 86.0907 112.714 86.4029 112.698 86.7245C112.676 87.1315 112.654 87.5385 112.632 87.9454C112.617 88.2546 112.617 88.2546 112.602 88.5699C112.517 90.1154 112.517 90.1154 112.231 90.4013C111.804 90.4265 111.375 90.4346 110.947 90.4334C110.597 90.4344 110.597 90.4344 110.241 90.4354C109.663 90.4013 109.663 90.4013 109.406 90.1445C109.383 89.3664 109.377 88.5941 109.381 87.816C109.381 87.5827 109.382 87.3493 109.382 87.1089C109.384 86.3604 109.387 85.612 109.39 84.8636C109.391 84.3574 109.393 83.8513 109.394 83.3452C109.396 82.1017 109.401 80.8582 109.406 79.6148Z" fill="#FAD535"/>
<path d="M130.086 79.8184C130.957 80.241 131.597 80.708 132.263 81.4125C131.88 82.3872 131.298 82.8534 130.465 83.4671C129.246 82.9855 129.246 82.9855 128.668 82.6966C127.565 82.5718 127.044 82.5778 126.116 83.2102C125.526 84.0679 125.394 84.5203 125.459 85.5387C125.679 86.3999 126.178 86.8007 126.87 87.3194C127.638 87.6454 128.138 87.5721 128.925 87.3194C128.331 87.1499 127.738 86.9804 127.127 86.8057C127.127 85.9582 127.127 85.1107 127.127 84.2375C129.161 84.2375 131.195 84.2375 133.291 84.2375C133.291 87.5579 133.291 87.5579 132.057 88.8212C130.518 90.235 129.375 90.7863 127.271 90.7393C125.586 90.5312 124.36 89.6185 123.274 88.3467C122.308 86.9311 122.085 85.6901 122.247 83.9807C122.59 82.18 123.608 81.1682 125.072 80.1284C126.492 79.2353 128.526 79.3282 130.086 79.8184Z" fill="#F2CB38"/>
<path d="M92.504 79.5185C92.9054 79.5041 92.9054 79.5041 93.3151 79.4894C95.5387 79.464 95.5387 79.464 96.4757 80.2328C97.3199 81.1655 97.5725 81.5586 97.6404 82.8251C97.5922 83.724 97.5922 83.724 97.4157 84.2376C97.2738 84.8236 97.2738 84.8236 97.7367 85.5699C98.1969 86.5606 98.1163 87.2843 97.834 88.3247C97.3659 89.3619 96.5435 89.8984 95.5377 90.4013C95.0938 90.4261 94.649 90.4349 94.2044 90.4354C93.9407 90.4358 93.677 90.4361 93.4053 90.4364C93.1291 90.4354 92.8528 90.4345 92.5682 90.4334C92.2909 90.4344 92.0136 90.4354 91.728 90.4364C91.3329 90.4359 91.3329 90.4359 90.9299 90.4354C90.6871 90.4351 90.4442 90.4349 90.194 90.4346C89.6308 90.4013 89.6308 90.4013 89.3739 90.1445C89.348 89.3881 89.3381 88.6378 89.3398 87.8813C89.3396 87.6542 89.3393 87.4272 89.3391 87.1932C89.3389 86.7122 89.3394 86.2312 89.3405 85.7502C89.3418 85.0112 89.3405 84.2723 89.3388 83.5333C89.339 83.0672 89.3393 82.601 89.3398 82.1349C89.3393 81.9123 89.3388 81.6897 89.3383 81.4604C89.3478 79.039 90.3617 79.5471 92.504 79.5185ZM92.4558 82.4398C92.4558 82.8636 92.4558 83.2874 92.4558 83.724C93.5999 83.5968 93.5999 83.5968 94.7672 83.4671C94.7672 83.1281 94.7672 82.7891 94.7672 82.4398C94.0044 82.4398 93.2417 82.4398 92.4558 82.4398ZM92.4558 86.2922C92.4558 86.7159 92.4558 87.1397 92.4558 87.5763C93.2186 87.5763 93.9813 87.5763 94.7672 87.5763C94.852 87.1525 94.9367 86.7288 95.024 86.2922C94.1765 86.2922 93.329 86.2922 92.4558 86.2922Z" fill="#F2CB38"/>
<path d="M50.7102 79.7914C52.2955 80.5175 53.2709 81.6701 53.9004 83.2906C54.36 84.8529 54.2553 86.2951 53.5152 87.7529C52.6751 89.0665 51.3646 90.2998 49.8234 90.6582C47.8697 90.9138 46.2776 90.565 44.687 89.3741C43.3527 87.8286 42.7894 86.4316 42.819 84.3991C43.0018 82.6418 43.9228 81.5288 45.2568 80.4435C46.8793 79.3262 48.8201 79.2617 50.7102 79.7914ZM46.4847 83.2103C45.8512 84.1606 45.7988 84.9328 45.9711 86.0354C46.4592 86.899 46.8483 87.2395 47.7207 87.7047C48.8303 87.8788 49.376 87.6248 50.337 87.0627C50.929 86.3562 51.0897 85.9207 51.2038 85.0081C51.0931 84.122 50.8837 83.6563 50.337 82.9535C49.0455 82.0183 47.6978 82.3005 46.4847 83.2103Z" fill="#F0C839"/>
<path d="M46.7415 33.6437C46.911 33.8132 47.0805 33.9827 47.2552 34.1573C47.7598 34.3853 47.7598 34.3853 48.3145 34.5747C48.5006 34.6415 48.6867 34.7084 48.8784 34.7773C49.0207 34.827 49.1631 34.8766 49.3097 34.9278C49.3213 35.0774 49.3328 35.2271 49.3447 35.3812C49.6135 38.9572 49.6135 38.9572 50.2086 42.488C50.6597 44.6804 50.7559 46.886 50.8801 49.1164C51.0115 51.4502 51.2227 53.7417 51.5929 56.0501C51.9265 58.1928 52.0796 60.3442 52.2256 62.5069C52.2439 62.7761 52.2623 63.0453 52.2812 63.3227C52.2965 63.5613 52.3118 63.8 52.3275 64.046C52.391 64.7127 52.515 65.3475 52.6484 66.0032C52.6654 66.5434 52.6704 67.084 52.6645 67.6244C52.6621 67.8989 52.6598 68.1733 52.6574 68.4561C52.6545 68.6637 52.6515 68.8712 52.6484 69.0851C51.8997 68.8093 51.4213 68.6284 50.8507 68.0578C50.7233 67.4808 50.7233 67.4808 50.6329 66.7469C50.5976 66.4693 50.5623 66.1917 50.526 65.9057C50.4711 65.4468 50.4711 65.4468 50.4151 64.9786C50.375 64.6575 50.3348 64.3363 50.2935 64.0055C50.1832 63.1232 50.0758 62.2407 49.9688 61.3581C49.8565 60.4348 49.7418 59.5117 49.6274 58.5887C49.4356 57.0376 49.2454 55.4863 49.0563 53.9349C48.8137 51.9448 48.5684 49.9551 48.3222 47.9655C48.1105 46.2545 47.9001 44.5434 47.6899 42.8322C47.6224 42.2826 47.5546 41.733 47.4868 41.1834C47.3604 40.1579 47.2354 39.1323 47.1106 38.1066C47.073 37.8023 47.0353 37.4979 46.9966 37.1843C46.9627 36.9045 46.9289 36.6248 46.8941 36.3365C46.8644 36.094 46.8348 35.8516 46.8043 35.6018C46.7431 34.9445 46.7302 34.3033 46.7415 33.6437Z" fill="#BC2325"/>
<path d="M53.419 46.7416C53.5037 46.7416 53.5885 46.7416 53.6758 46.7416C53.8453 48.0976 54.0148 49.4536 54.1894 50.8507C54.2742 50.8507 54.3589 50.8507 54.4462 50.8507C54.4684 51.1546 54.4906 51.4586 54.5135 51.7717C54.8035 55.2279 55.5438 57.3521 57.8441 60.013C58.7835 60.8484 58.7835 60.8484 61.1236 61.8941C61.1236 64.6909 61.1236 67.4876 61.1236 70.3692C60.4456 70.3321 59.7676 70.295 59.069 70.2568C58.8598 70.2458 58.6506 70.2347 58.435 70.2233C57.1815 70.152 55.9473 70.0238 54.7031 69.8555C55.2116 69.7284 55.2116 69.7284 55.7304 69.5987C55.6702 69.3912 55.6702 69.3912 55.6088 69.1795C55.4506 68.4686 55.4049 67.7879 55.3632 67.0606C55.3448 66.7634 55.3265 66.4661 55.3076 66.1599C55.2882 65.8433 55.2688 65.5268 55.2488 65.2006C55.114 63.1546 54.974 61.133 54.5907 59.1172C54.1831 56.9638 53.9659 54.796 53.756 52.6164C53.7389 52.4423 53.7218 52.2682 53.7042 52.0888C53.5298 50.3019 53.371 48.5376 53.419 46.7416Z" fill="#C02424"/>
<path d="M79.8074 79.5806C80.1067 79.5803 80.406 79.5799 80.7143 79.5796C81.0295 79.5806 81.3447 79.5816 81.6694 79.5826C82.1422 79.5811 82.1422 79.5811 82.6245 79.5796C83.0734 79.5801 83.0734 79.5801 83.5314 79.5806C83.8081 79.5809 84.0849 79.5812 84.37 79.5815C85.0081 79.6147 85.0081 79.6147 85.2649 79.8715C85.3351 81.3447 85.3351 81.3447 85.2649 81.9261C84.7513 82.4397 84.7513 82.4397 83.9146 82.4899C83.5868 82.4839 83.2591 82.478 82.9214 82.4718C82.4278 82.4649 82.4278 82.4649 81.9242 82.4578C81.5438 82.4489 81.5438 82.4489 81.1558 82.4397C81.1558 82.7787 81.1558 83.1178 81.1558 83.467C82.3423 83.467 83.5288 83.467 84.7513 83.467C84.7763 85.4484 84.7763 85.4484 84.7513 86.0352C84.4944 86.2921 84.4944 86.2921 83.739 86.3172C83.4321 86.3142 83.1252 86.3112 82.809 86.3081C82.3477 86.3046 82.3477 86.3046 81.8771 86.3011C81.639 86.2981 81.401 86.2951 81.1558 86.2921C81.1558 86.7158 81.1558 87.1396 81.1558 87.5762C81.5684 87.5717 81.5684 87.5717 81.9894 87.5672C82.3482 87.5647 82.7071 87.5624 83.0659 87.5601C83.2475 87.558 83.429 87.5558 83.6161 87.5536C84.0802 87.5514 84.5442 87.5628 85.0081 87.5762C85.2649 87.833 85.2649 87.833 85.299 88.3547C85.2984 88.5639 85.2977 88.7731 85.297 88.9887C85.298 89.3025 85.298 89.3025 85.299 89.6227C85.2649 90.1444 85.2649 90.1444 85.0081 90.4012C84.5164 90.4268 84.0237 90.4348 83.5314 90.4353C83.2321 90.4357 82.9328 90.436 82.6245 90.4363C82.3093 90.4353 81.9941 90.4343 81.6694 90.4333C81.1966 90.4348 81.1966 90.4348 80.7143 90.4363C80.4151 90.436 80.1158 90.4357 79.8074 90.4353C79.5307 90.435 79.2539 90.4347 78.9688 90.4345C78.3307 90.4012 78.3307 90.4012 78.0739 90.1444C78.0479 89.388 78.038 88.6377 78.0398 87.8812C78.0395 87.6541 78.0393 87.4271 78.039 87.1931C78.0389 86.7121 78.0393 86.2311 78.0404 85.7501C78.0418 85.0111 78.0404 84.2722 78.0388 83.5332C78.0389 83.0671 78.0393 82.6009 78.0398 82.1348C78.0393 81.9122 78.0387 81.6896 78.0382 81.4603C78.0452 79.6819 78.0475 79.5824 79.8074 79.5806Z" fill="#FCD734"/>
<path d="M137.143 79.6147C139.431 79.6147 141.719 79.6147 144.077 79.6147C144.077 80.4623 144.077 81.3098 144.077 82.183C143.82 82.4398 143.82 82.4398 143.009 82.4649C142.513 82.4604 142.513 82.4604 142.006 82.4558C141.675 82.4535 141.344 82.4512 141.002 82.4488C140.746 82.4458 140.489 82.4429 140.225 82.4398C140.225 82.7788 140.225 83.1178 140.225 83.4671C141.411 83.4671 142.598 83.4671 143.82 83.4671C143.845 85.4484 143.845 85.4484 143.82 86.0353C143.563 86.2921 143.563 86.2921 142.808 86.3172C142.501 86.3142 142.194 86.3112 141.878 86.3082C141.417 86.3047 141.417 86.3047 140.946 86.3011C140.708 86.2982 140.47 86.2952 140.225 86.2921C140.225 86.7159 140.225 87.1396 140.225 87.5762C140.637 87.5718 140.637 87.5718 141.058 87.5672C141.417 87.5648 141.776 87.5624 142.135 87.5602C142.316 87.558 142.498 87.5559 142.685 87.5537C143.149 87.5514 143.613 87.5628 144.077 87.5762C144.334 87.833 144.334 87.833 144.368 88.3547C144.367 88.5639 144.367 88.7732 144.366 88.9887C144.367 89.3026 144.367 89.3026 144.368 89.6228C144.334 90.1444 144.334 90.1444 144.077 90.4013C143.585 90.4269 143.093 90.4349 142.6 90.4354C142.301 90.4357 142.002 90.436 141.693 90.4364C141.378 90.4354 141.063 90.4344 140.738 90.4334C140.266 90.4349 140.266 90.4349 139.783 90.4364C139.484 90.436 139.185 90.4357 138.876 90.4354C138.6 90.4351 138.323 90.4348 138.038 90.4345C137.4 90.4013 137.4 90.4013 137.143 90.1444C137.12 89.3663 137.113 88.5941 137.118 87.816C137.118 87.5826 137.118 87.3493 137.119 87.1089C137.12 86.3604 137.124 85.612 137.127 84.8635C137.128 84.3574 137.129 83.8513 137.13 83.3452C137.133 82.1017 137.138 80.8582 137.143 79.6147Z" fill="#FAD535"/>
<path d="M56.7576 79.6147C57.7746 79.6147 58.7916 79.6147 59.8394 79.6147C60.4327 81.4793 61.0259 83.3438 61.6372 85.2648C62.3152 83.4003 62.9932 81.5358 63.6918 79.6147C64.7088 79.6147 65.7258 79.6147 66.7736 79.6147C66.3862 81.6746 65.7158 83.6232 65.0283 85.5976C64.8296 86.169 64.633 86.7411 64.4366 87.3134C64.3112 87.6766 64.1856 88.0398 64.0599 88.4029C63.9717 88.6597 63.9717 88.6597 63.8816 88.9216C63.4647 90.1147 63.4647 90.1147 63.1781 90.4013C62.5621 90.4715 62.5621 90.4715 61.7977 90.4976C61.5468 90.5102 61.2958 90.5227 61.0373 90.5357C60.3531 90.4013 60.3531 90.4013 59.9684 89.8723C59.5213 88.9972 59.196 88.1047 58.8894 87.1739C58.797 86.8981 58.797 86.8981 58.7027 86.6168C58.5735 86.23 58.4451 85.843 58.3175 85.4557C58.122 84.8638 57.9233 84.273 57.7242 83.6823C57.5987 83.3053 57.4735 82.9283 57.3485 82.5511C57.2891 82.3751 57.2297 82.199 57.1685 82.0177C56.8883 81.16 56.7576 80.5294 56.7576 79.6147Z" fill="#EBC33A"/>
<path d="M69.8555 62.9214C69.7707 65.4639 69.686 68.0065 69.5987 70.626C66.8866 70.626 64.1746 70.626 61.3804 70.626C61.3804 70.5413 61.3804 70.4565 61.3804 70.3692C62.2279 70.3692 63.0754 70.3692 63.9486 70.3692C63.9486 67.9962 63.9486 65.6232 63.9486 63.1782C64.7802 63.1358 65.6118 63.0935 66.4687 63.0498C66.7298 63.0364 66.9909 63.023 67.26 63.0092C67.57 62.9935 67.57 62.9935 67.8862 62.9776C68.0973 62.9668 68.3085 62.956 68.5261 62.945C68.9689 62.9263 69.4123 62.9214 69.8555 62.9214Z" fill="#BF2527"/>
<path d="M63.1782 36.9823C65.636 36.9823 68.0938 36.9823 70.6261 36.9823C70.6261 38.5926 70.6261 40.2028 70.6261 41.8619C68.1683 41.8619 65.7105 41.8619 63.1782 41.8619C63.1782 40.2516 63.1782 38.6414 63.1782 36.9823Z" fill="#C02221"/>
<path d="M101.701 79.6147C102.718 79.6147 103.735 79.6147 104.783 79.6147C104.79 81.1096 104.794 82.6045 104.797 84.0994C104.799 84.6084 104.8 85.1173 104.803 85.6263C104.806 86.3562 104.807 87.0861 104.808 87.816C104.81 88.045 104.811 88.274 104.812 88.5099C104.812 89.0549 104.799 89.5998 104.783 90.1444C104.526 90.4013 104.526 90.4013 103.949 90.4354C103.716 90.4347 103.482 90.434 103.242 90.4334C102.893 90.4344 102.893 90.4344 102.536 90.4354C101.958 90.4013 101.958 90.4013 101.701 90.1444C101.679 89.3663 101.672 88.5941 101.676 87.816C101.677 87.5826 101.677 87.3493 101.677 87.1089C101.679 86.3604 101.682 85.612 101.685 84.8635C101.687 84.3574 101.688 83.8513 101.689 83.3452C101.692 82.1017 101.696 80.8582 101.701 79.6147Z" fill="#E7BE3B"/>
<path d="M70.626 79.6147C71.5582 79.6147 72.4905 79.6147 73.451 79.6147C73.451 83.1743 73.451 86.7338 73.451 90.4013C72.6035 90.4013 71.756 90.4013 70.8828 90.4013C70.626 90.1444 70.626 90.1444 70.5968 89.1487C70.5968 88.7045 70.5983 88.2602 70.6009 87.816C70.6012 87.5826 70.6016 87.3493 70.602 87.1089C70.6034 86.3604 70.6066 85.612 70.6099 84.8635C70.6112 84.3574 70.6124 83.8513 70.6134 83.3452C70.6163 82.1017 70.6207 80.8582 70.626 79.6147Z" fill="#EFC739"/>
<path d="M21.8298 96.8218C22.4558 96.8699 22.4558 96.8699 23.1139 97.0786C23.451 97.6083 23.451 97.6083 23.6276 98.1059C23.7971 97.6821 23.9666 97.2584 24.1412 96.8218C24.7351 96.7415 24.7351 96.7415 25.4253 96.8218C25.8908 97.4638 25.8908 97.4638 26.1958 98.1059C26.3653 97.6821 26.5348 97.2584 26.7094 96.8218C27.1332 96.8218 27.5569 96.8218 27.9935 96.8218C27.8523 98.3751 27.5045 99.7254 26.9663 101.188C26.3563 101.348 26.3563 101.348 25.6821 101.445C25.1329 100.895 25.059 100.64 24.9117 99.9037C24.6574 100.412 24.4032 100.921 24.1412 101.445C23.7175 101.445 23.2937 101.445 22.8571 101.445C22.2897 100.026 21.773 98.6016 21.573 97.0786C21.6577 96.9939 21.7425 96.9091 21.8298 96.8218Z" fill="#BD9EB6"/>
<path d="M120.193 96.8218C120.616 96.8218 121.04 96.8218 121.477 96.8218C121.942 97.3354 121.942 97.3354 122.247 97.8491C122.417 97.5101 122.586 97.1711 122.761 96.8218C123.185 96.8218 123.608 96.8218 124.045 96.8218C124.045 98.3473 124.045 99.8728 124.045 101.445C122.663 101.168 122.379 100.91 121.477 99.9036C121.477 100.412 121.477 100.921 121.477 101.445C121.053 101.445 120.629 101.445 120.193 101.445C120.193 99.919 120.193 98.3935 120.193 96.8218Z" fill="#C4A9BE"/>
<path d="M137.4 96.8218C138.138 97.2231 138.138 97.2231 138.684 97.8491C138.977 98.8556 139.046 99.3981 138.636 100.369C137.937 101.212 137.468 101.403 136.388 101.541C135.413 101.421 135.015 101.094 134.318 100.417C133.91 99.6009 133.954 99.0059 134.061 98.1059C135.083 96.9339 135.804 96.5607 137.4 96.8218ZM136.116 98.1059C135.66 98.4537 135.66 98.4537 135.345 98.8763C135.548 99.3899 135.548 99.3899 135.859 99.9036C136.113 99.9884 136.367 100.073 136.629 100.16C136.883 99.991 137.138 99.8215 137.4 99.6468C137.315 99.2231 137.23 98.7993 137.143 98.3627C136.671 98.1643 136.671 98.1643 136.116 98.1059Z" fill="#B796B0"/>
<path d="M51.1075 96.8218C51.5313 96.8218 51.9551 96.8218 52.3917 96.8218C52.3917 97.3303 52.3917 97.8388 52.3917 98.3627C52.9002 98.3627 53.4087 98.3627 53.9326 98.3627C53.9326 97.939 53.9326 97.5152 53.9326 97.0786C54.3579 96.9804 54.7864 96.8952 55.2167 96.8218C55.4735 97.0786 55.4735 97.0786 55.4986 98.0026C55.4969 98.3848 55.4938 98.767 55.4896 99.1492C55.4884 99.3441 55.4872 99.5389 55.4861 99.7396C55.483 100.222 55.4784 100.705 55.4735 101.188C55.0482 101.286 54.6197 101.371 54.1894 101.445C53.9326 101.188 53.9326 101.188 53.9165 100.401C53.9245 100.028 53.9245 100.028 53.9326 99.6468C53.4241 99.6468 52.9156 99.6468 52.3917 99.6468C52.3917 100.24 52.3917 100.833 52.3917 101.445C51.9679 101.36 51.5441 101.275 51.1075 101.188C51.1075 99.747 51.1075 98.3062 51.1075 96.8218Z" fill="#B694AF"/>
<path d="M74.9919 96.8218C77.3301 96.6987 77.3301 96.6987 78.2504 97.191C78.6987 98.0663 78.5637 98.646 78.4069 99.5967C78.3169 100.262 78.4008 100.802 78.5874 101.445C77.9935 101.509 77.9935 101.509 77.3033 101.445C76.8379 100.931 76.8379 100.931 76.5329 100.417C76.4481 100.756 76.3634 101.095 76.2761 101.445C75.8523 101.445 75.4285 101.445 74.9919 101.445C74.9919 99.9191 74.9919 98.3935 74.9919 96.8218ZM76.2761 98.1059C76.2761 98.3601 76.2761 98.6144 76.2761 98.8764C76.6151 98.7916 76.9541 98.7069 77.3033 98.6195C77.2186 98.45 77.1338 98.2805 77.0465 98.1059C76.7923 98.1059 76.538 98.1059 76.2761 98.1059Z" fill="#BA9AB3"/>
<path d="M96.8218 96.8218C97.2455 96.8218 97.6693 96.8218 98.1059 96.8218C98.1059 97.1608 98.1059 97.4998 98.1059 97.8491C98.2754 97.8491 98.4449 97.8491 98.6195 97.8491C98.789 97.5101 98.9585 97.1711 99.1332 96.8218C99.6417 96.8218 100.15 96.8218 100.674 96.8218C100.366 97.6136 100.038 98.3788 99.6468 99.1332C99.7395 99.257 99.8322 99.3808 99.9277 99.5084C100.047 99.6706 100.166 99.8328 100.289 99.9999C100.408 100.161 100.527 100.322 100.65 100.488C100.931 100.931 100.931 100.931 100.931 101.445C100.225 101.509 100.225 101.509 99.39 101.445C98.78 100.931 98.78 100.931 98.3627 100.417C98.278 100.756 98.1932 101.095 98.1059 101.445C97.6821 101.445 97.2584 101.445 96.8218 101.445C96.8218 99.919 96.8218 98.3935 96.8218 96.8218Z" fill="#B897B1"/>
<path d="M31.8459 96.8218C32.3544 96.8218 32.8629 96.8218 33.3868 96.8218C33.6514 97.4951 33.9131 98.1693 34.1733 98.8442C34.249 99.0359 34.3246 99.2276 34.4025 99.4251C34.5926 99.9216 34.7617 100.426 34.9277 100.931C34.843 101.1 34.7582 101.27 34.6709 101.445C33.6933 101.272 32.7827 101.001 31.8459 100.674C31.7611 100.928 31.6764 101.183 31.589 101.445C31.1653 101.36 30.7415 101.275 30.3049 101.188C30.7316 99.6836 31.1962 98.2448 31.8459 96.8218ZM32.3595 98.8764C32.3595 99.0459 32.3595 99.2154 32.3595 99.39C32.529 99.39 32.6985 99.39 32.8731 99.39C32.8731 99.2205 32.8731 99.051 32.8731 98.8764C32.7036 98.8764 32.5341 98.8764 32.3595 98.8764Z" fill="#BA9AB3"/>
<path d="M46.7416 96.8218C47.496 97.4639 47.496 97.4639 48.0257 98.1059C47.8562 98.2754 47.6867 98.4449 47.512 98.6196C46.8113 98.6111 46.1517 98.4747 45.4575 98.3627C45.3727 98.7865 45.288 99.2102 45.2006 99.6468C46.098 99.946 46.5943 99.8031 47.512 99.6468C47.6815 99.7316 47.851 99.8163 48.0257 99.9037C47.6739 100.716 47.5148 100.929 46.7416 101.445C45.5541 101.574 44.8617 101.409 43.9165 100.674C43.3808 99.9923 43.4032 99.6295 43.4189 98.748C43.6597 97.8491 43.6597 97.8491 44.2055 97.2231C45.1494 96.71 45.6813 96.6514 46.7416 96.8218Z" fill="#B693AE"/>
<path d="M84.1252 96.8058C84.4351 96.8137 84.4351 96.8137 84.7512 96.8218C84.9619 97.3025 85.1701 97.7842 85.3772 98.2665C85.4934 98.5346 85.6096 98.8028 85.7293 99.0791C86.0245 99.8746 86.1825 100.605 86.2921 101.445C85.8684 101.445 85.4446 101.445 85.008 101.445C84.9233 101.19 84.8385 100.936 84.7512 100.674C84.5234 100.754 84.2956 100.833 84.061 100.915C83.3471 101.144 82.6629 101.315 81.9261 101.445C82.0487 100.035 82.4092 96.8476 84.1252 96.8058ZM83.9807 98.8764C84.2375 99.3901 84.2375 99.3901 84.2375 99.3901L83.9807 98.8764Z" fill="#BA9BB3"/>
<path d="M91.4446 96.6774C92.848 96.8779 92.848 96.8779 93.4831 97.5923C93.4831 97.8465 93.4831 98.1008 93.4831 98.3628C92.5646 98.6807 91.8556 98.5552 90.9149 98.3628C90.8301 98.8713 90.7454 99.3798 90.6581 99.9037C91.5056 99.8189 92.3531 99.7342 93.2263 99.6469C93.311 99.9859 93.3958 100.325 93.4831 100.674C92.5066 101.363 91.8541 101.619 90.6581 101.445C89.9647 100.982 89.4916 100.653 89.1171 99.9037C88.9736 98.8512 89.0819 98.4222 89.6308 97.496C90.5251 96.7135 90.5251 96.7135 91.4446 96.6774Z" fill="#B796B0"/>
<path d="M113.772 96.8218C114.704 96.8218 115.637 96.8218 116.597 96.8218C116.854 97.8491 116.854 97.8491 116.597 98.3627C116.587 98.7906 116.586 99.2189 116.597 99.6468C116.089 99.6468 115.58 99.6468 115.056 99.6468C115.056 99.8163 115.056 99.9858 115.056 100.16C115.649 100.16 116.243 100.16 116.854 100.16C116.769 100.584 116.684 101.008 116.597 101.445C116.174 101.451 115.752 101.456 115.329 101.461C115.094 101.464 114.858 101.467 114.616 101.47C114.029 101.445 114.029 101.445 113.772 101.188C113.753 100.453 113.748 99.7237 113.756 98.9887C113.757 98.7816 113.758 98.5746 113.76 98.3612C113.763 97.8481 113.767 97.3349 113.772 96.8218Z" fill="#B796B0"/>
<path d="M141.509 96.8218C142.231 96.7576 142.231 96.7576 143.05 96.8218C143.531 97.3355 143.531 97.3355 143.82 97.8491C143.99 97.5101 144.159 97.1711 144.334 96.8218C144.842 96.8218 145.351 96.8218 145.875 96.8218C145.636 97.6125 145.407 98.2908 144.96 98.9888C144.504 99.8021 144.424 100.524 144.334 101.445C143.91 101.445 143.486 101.445 143.05 101.445C142.954 101 142.954 101 142.857 100.546C142.608 99.5332 142.214 98.6754 141.715 97.7628C141.509 97.3355 141.509 97.3355 141.509 96.8218Z" fill="#BA9AB3"/>
<path d="M68.3146 96.8218C69.4163 96.8218 70.5181 96.8218 71.6532 96.8218C71.6532 97.2455 71.6532 97.6693 71.6532 98.1059C71.3142 98.1059 70.9752 98.1059 70.626 98.1059C70.626 99.1229 70.626 100.14 70.626 101.188C70.2022 101.272 69.7784 101.357 69.3418 101.445C69.085 101.188 69.085 101.188 69.0599 100.489C69.0629 100.205 69.0659 99.9224 69.069 99.6308C69.0713 99.347 69.0736 99.0633 69.076 98.771C69.079 98.5515 69.082 98.332 69.085 98.1059C68.746 98.0211 68.407 97.9364 68.0577 97.8491C68.1425 97.5101 68.2272 97.1711 68.3146 96.8218Z" fill="#B592AD"/>
<path d="M37.2391 96.8218C38.3409 96.8218 39.4427 96.8218 40.5778 96.8218C40.6626 97.076 40.7473 97.3303 40.8346 97.5922C40.7499 97.7617 40.6651 97.9312 40.5778 98.1059C40.2388 98.1059 39.8998 98.1059 39.5505 98.1059C39.5505 99.2077 39.5505 100.309 39.5505 101.445C39.1268 101.445 38.703 101.445 38.2664 101.445C38.2664 100.343 38.2664 99.241 38.2664 98.1059C37.8427 98.0211 37.4189 97.9364 36.9823 97.8491C37.0671 97.5101 37.1518 97.1711 37.2391 96.8218Z" fill="#B795AF"/>
<path d="M129.438 96.8218C129.862 96.8218 130.286 96.8218 130.722 96.8218C130.75 97.4481 130.77 98.0732 130.787 98.6998C130.799 98.9657 130.799 98.9657 130.813 99.237C130.838 100.546 130.838 100.546 130.263 101.185C129.403 101.578 128.795 101.42 127.897 101.188C127.728 100.933 127.558 100.679 127.384 100.417C127.553 100.248 127.723 100.078 127.897 99.9036C128.321 99.9036 128.745 99.9036 129.181 99.9036C129.266 98.8866 129.351 97.8696 129.438 96.8218Z" fill="#AF8AA6"/>
<path d="M26.7095 96.8218C27.1333 96.8218 27.557 96.8218 27.9936 96.8218C27.852 98.1672 27.6266 99.3832 27.2231 100.674C27.1384 100.674 27.0536 100.674 26.9663 100.674C26.8816 100.166 26.7968 99.6571 26.7095 99.1332C26.4552 99.2179 26.201 99.3027 25.939 99.39C25.4017 98.2521 25.4017 98.2521 25.5217 97.512C25.5747 97.369 25.6276 97.226 25.6822 97.0786C25.8517 97.4176 26.0212 97.7566 26.1959 98.1059C26.3654 97.6821 26.5349 97.2584 26.7095 96.8218Z" fill="#AF89A6"/>
<path d="M21.8298 96.8218C22.4558 96.8699 22.4558 96.8699 23.1139 97.0786C23.451 97.6083 23.451 97.6083 23.6276 98.1059C23.7971 97.8516 23.9666 97.5974 24.1412 97.3354C24.0565 97.8439 23.9717 98.3524 23.8844 98.8764C23.5454 98.8764 23.2064 98.8764 22.8571 98.8764C22.7724 99.0459 22.6876 99.2154 22.6003 99.39C22.4308 99.39 22.2613 99.39 22.0866 99.39C21.9939 99.0105 21.9033 98.6306 21.8138 98.2503C21.7631 98.0388 21.7125 97.8273 21.6603 97.6093C21.6171 97.3466 21.6171 97.3466 21.573 97.0786C21.6577 96.9938 21.7425 96.9091 21.8298 96.8218Z" fill="#AF88A6"/>
<path d="M79.1012 51.8781C79.1859 51.8781 79.2707 51.8781 79.358 51.8781C79.5734 53.807 79.6347 55.6041 79.358 57.5281C79.1885 57.1891 79.019 56.8501 78.8443 56.5008C78.6748 56.5008 78.5053 56.5008 78.3307 56.5008C78.3648 56.3608 78.3989 56.2208 78.434 56.0765C78.7616 54.6777 78.9649 53.3082 79.1012 51.8781Z" fill="#CC4E4E"/>
<path d="M122.761 96.8218C123.185 96.8218 123.608 96.8218 124.045 96.8218C124.045 98.3473 124.045 99.8728 124.045 101.445C123.706 101.36 123.367 101.275 123.018 101.188C123.272 101.188 123.526 101.188 123.788 101.188C123.788 99.8317 123.788 98.4757 123.788 97.0786C123.534 97.0786 123.28 97.0786 123.018 97.0786C123.018 97.6719 123.018 98.2651 123.018 98.8764C122.679 98.7068 122.34 98.5373 121.99 98.3627C122.472 97.1107 122.472 97.1107 122.761 96.8218Z" fill="#A37698"/>
<path d="M120.193 96.8218C120.616 96.8218 121.04 96.8218 121.477 96.8218C121.138 96.9065 120.799 96.9913 120.449 97.0786C120.449 98.4346 120.449 99.7906 120.449 101.188C120.704 101.188 120.958 101.188 121.22 101.188C121.22 100.51 121.22 99.8317 121.22 99.1332C121.474 99.2179 121.728 99.3027 121.99 99.39C121.99 99.5595 121.99 99.729 121.99 99.9036C121.821 99.9036 121.651 99.9036 121.477 99.9036C121.477 100.412 121.477 100.921 121.477 101.445C121.053 101.445 120.629 101.445 120.193 101.445C120.193 99.919 120.193 98.3935 120.193 96.8218Z" fill="#A37899"/>
<path d="M129.695 97.0786C129.949 97.0786 130.203 97.0786 130.465 97.0786C130.465 98.3499 130.465 99.6211 130.465 100.931C129.695 100.16 129.695 100.16 129.62 99.4111C129.629 99.134 129.638 98.8569 129.647 98.5714C129.654 98.2923 129.661 98.0132 129.668 97.7257C129.677 97.5122 129.686 97.2986 129.695 97.0786Z" fill="#C4A9BE"/>
<path d="M59.0691 100.161C59.4081 100.161 59.7471 100.161 60.0964 100.161C60.2729 100.61 60.2729 100.61 60.3532 101.188C60.0161 101.766 60.0161 101.766 59.5827 102.215C59.4132 102.215 59.2437 102.215 59.0691 102.215C58.9713 101.618 58.886 101.018 58.8123 100.417C58.897 100.333 58.9818 100.248 59.0691 100.161Z" fill="#AD85A4"/>
<path d="M104.526 100.161C105.056 100.273 105.056 100.273 105.554 100.417C105.469 100.926 105.384 101.434 105.297 101.958C104.958 101.958 104.619 101.958 104.27 101.958C104.259 101.445 104.259 100.931 104.27 100.417C104.354 100.333 104.439 100.248 104.526 100.161Z" fill="#AF89A7"/>
<path d="M73.7078 61.1235C73.8773 61.2083 74.0468 61.293 74.2215 61.3804C74.0559 61.5062 73.8904 61.632 73.7199 61.7616C73.0072 62.6374 73.0226 63.4429 73.0016 64.5264C72.994 64.7178 72.9863 64.9091 72.9785 65.1063C72.9604 65.5763 72.9483 66.0465 72.9374 66.5168C72.8526 66.5168 72.7679 66.5168 72.6805 66.5168C72.6805 64.9065 72.6805 63.2962 72.6805 61.6372C73.0195 61.4677 73.3586 61.2982 73.7078 61.1235Z" fill="#CA4646"/>
<path d="M121.734 40.5779C122.729 41.0273 122.729 41.0273 123.018 41.6052C122.724 41.6449 122.724 41.6449 122.424 41.6854C121.677 41.8764 121.468 42.0799 120.963 42.6325C120.794 42.6325 120.624 42.6325 120.449 42.6325C120.802 41.8738 121.217 41.2353 121.734 40.5779Z" fill="#B18DA9"/>
<path d="M60.8668 45.9711C61.0363 46.0558 61.2058 46.1406 61.3805 46.2279C60.533 47.0754 59.6855 47.9229 58.8123 48.7961C58.8123 47.686 59.3642 47.285 60.0964 46.4847C60.3506 46.3152 60.6049 46.1457 60.8668 45.9711Z" fill="#D6C4D2"/>
<path d="M144.334 96.8218C144.842 96.8218 145.351 96.8218 145.875 96.8218C145.705 97.3303 145.536 97.8388 145.361 98.3627C145.192 98.1085 145.022 97.8542 144.847 97.5922C144.593 97.677 144.339 97.7617 144.077 97.8491C144.162 97.5101 144.247 97.1711 144.334 96.8218Z" fill="#AC84A3"/>
<path d="M148.7 100.161C149.039 100.161 149.378 100.161 149.727 100.161C149.812 100.415 149.897 100.669 149.984 100.931C149.475 101.185 149.475 101.185 148.957 101.445C148.787 101.106 148.618 100.767 148.443 100.417C148.528 100.333 148.612 100.248 148.7 100.161Z" fill="#AC84A2"/>
<path d="M141.509 96.8218C142.017 96.8218 142.526 96.8218 143.05 96.8218C143.134 97.1608 143.219 97.4998 143.307 97.8491C143.137 97.7643 142.968 97.6796 142.793 97.5922C142.793 97.4227 142.793 97.2532 142.793 97.0786C142.623 97.0786 142.454 97.0786 142.279 97.0786C142.279 97.5024 142.279 97.9261 142.279 98.3627C141.509 97.3996 141.509 97.3996 141.509 96.8218Z" fill="#A77C9D"/>
<path d="M30.5618 99.9037C30.7313 100.158 30.9008 100.412 31.0754 100.674C31.3297 100.674 31.5839 100.674 31.8459 100.674C31.7611 100.928 31.6764 101.183 31.589 101.445C31.1653 101.36 30.7415 101.275 30.3049 101.188C30.3897 100.764 30.4744 100.34 30.5618 99.9037Z" fill="#A980A0"/>
<path d="M58.0417 44.4302C58.2112 44.5149 58.3807 44.5997 58.5553 44.687C58.1403 45.2112 57.7115 45.7247 57.2712 46.2279C57.1017 46.2279 56.9322 46.2279 56.7576 46.2279C57.0896 45.4872 57.4406 44.9766 58.0417 44.4302Z" fill="#EEC4C4"/>
<path d="M79.1011 50.8507C79.3553 50.8507 79.6096 50.8507 79.8715 50.8507C79.7868 51.6982 79.702 52.5457 79.6147 53.4189C79.53 53.4189 79.4452 53.4189 79.3579 53.4189C79.2731 52.5714 79.1884 51.7239 79.1011 50.8507Z" fill="#C32B2B"/>
</svg>
